<svg xmlns="http://www.w3.org/2000/svg" viewBox="0 0 977.99 165.5">
  <defs>
    <style>
      .cls-1 {
        fill: #603813;
      }

      .cls-2 {
        fill: #42210b;
      }
    </style>
  </defs>
  <title>svg-barge-only</title>
  <g id="Layer_2" data-name="Layer 2">
    <g id="barge-fleet">
      <g id="barge-group">
        <g id="barge">
          <path id="bottom" class="cls-1" d="M942.57,132.88l7.14-26.47,26.73-78.12a12.8,12.8,0,0,0-.16-12.49h0a20.92,20.92,0,0,0-18-10.7s-154.12,26-157.46,26L214.19,28.42a17.32,17.32,0,0,1-12.25-5.17L181.61,3a14.24,14.24,0,0,0-8.91-3L24.42.93C17.84,1,8,2.82,5.63,9.41l-2.55,4.8A26.7,26.7,0,0,0,1.34,35L8.6,75.15C9.86,82.46,18,102.9,23.34,107.6l27.54,25.33"/>
          <rect id="top" class="cls-2" x="38.58" y="132.93" width="918.51" height="32.57" rx="11.98" transform="translate(995.66 298.44) rotate(-180)"/>
        </g>
      </g>
    </g>
  </g>
</svg>
